<svg width="1920" height="1080" xmlns="http://www.w3.org/2000/svg" version="1.1">
 <g>
  <path transform="rotate(179.999 -4007.73 235.501)" id="svg_1" d="m-12647.73303,279.19938l120,-32.7c120,-32.3 360,-98.3 600,-122.5c240,-24.8 480,-7.8 720,49c240,57.2 480,155.2 720,163.4c240,7.8 480,-73.2 720,-147c240,-73.2 480,-139.2 720,-171.5c240,-32.7 480,-32.7 720,24.5c240,56.8 480,171.8 720,204.1c240,32.7 480,-16.3 720,-65.3c240,-49 480,-98 720,-73.5c240,24.5 480,122.5 720,171.5c240,49 480,49 720,8.2c240,-41.2 480,-122.2 720,-171.5c240,-48.7 480,-65.7 720,-24.5c240,40.8 480,138.8 720,138.8c240,0 480,-98 720,-106.2c240,-7.8 480,73.2 720,138.9c240,65.3 480,114.3 720,98c240,-16.7 480,-97.7 720,-138.9c240,-40.8 480,-40.8 720,-40.8c240,0 480,0 720,-16.3c240,-16.7 480,-48.7 720,-81.7c240,-33 480,-65 720,-16.3c240,49.3 480,179.3 720,245c240,65.3 480,65.3 600,65.3l120,0l0,98l-120,0c-120,0 -360,0 -600,0c-240,0 -480,0 -720,0c-240,0 -480,0 -720,0c-240,0 -480,0 -720,0c-240,0 -480,0 -720,0c-240,0 -480,0 -720,0c-240,0 -480,0 -720,0c-240,0 -480,0 -720,0c-240,0 -480,0 -720,0c-240,0 -480,0 -720,0c-240,0 -480,0 -720,0c-240,0 -480,0 -720,0c-240,0 -480,0 -720,0c-240,0 -480,0 -720,0c-240,0 -480,0 -720,0c-240,0 -480,0 -720,0c-240,0 -480,0 -720,0c-240,0 -480,0 -720,0c-240,0 -480,0 -720,0c-240,0 -480,0 -720,0c-240,0 -480,0 -720,0c-240,0 -480,0 -720,0c-240,0 -480,0 -720,0c-240,0 -480,0 -600,0l-120,0l0,-196z" opacity="undefined" fill="#2F3676"/>
  <path d="m16007.62109,247.09021c0,0 0,0 0,0c0,0 -0.48625,-0.17625 -1,2c-0.68925,2.91975 -0.39415,8.01947 0,12c0.50244,5.07422 1,10 1,12l0,1" id="svg_2" fill="none"/>
  <line id="svg_3" y2="284.09021" x2="15987.62109" y1="228.09021" x1="15879.62109" fill="none"/>
  <path id="svg_4" d="m16510.12112,3.63089l0.38197,0l0.11803,-0.54067l0.11803,0.54067l0.38197,0l-0.30902,0.33415l0.11804,0.54067l-0.30902,-0.33416l-0.30902,0.33416l0.11804,-0.54067l-0.30902,-0.33415z" fill="#2F3676"/>
 </g>
</svg>